<mxfile host="app.diagrams.net" modified="2024-04-18T06:22:33.999Z" agent="Mozilla/5.0 (Windows NT 10.0; Win64; x64) AppleWebKit/537.36 (KHTML, like Gecko) Chrome/123.0.0.0 Safari/537.36 Edg/123.0.0.0" version="24.2.5" etag="PImJWrN8W1NBNOm6_ron" type="github">
  <diagram name="第 1 页" id="xvOhu0fwU86SvoOJGhxc">
    <mxGraphModel>
      <root>
        <mxCell id="0" />
        <mxCell id="1" parent="0" />
      </root>
    </mxGraphModel>
  </diagram>
</mxfile>
